<svg width="123" height="30" viewBox="0 0 123 30" fill="none" xmlns="http://www.w3.org/2000/svg">
<path d="M7.69953 22.748C9.81953 22.748 11.4795 22.273 12.6795 21.323C13.8795 20.373 14.4795 19.068 14.4795 17.408C14.4795 16.148 14.0895 15.153 13.3095 14.423C12.5395 13.693 11.2295 13.088 9.37953 12.608C8.11953 12.288 7.17953 12.028 6.55953 11.828C5.94953 11.628 5.54453 11.433 5.34453 11.243C5.15453 11.053 5.05953 10.818 5.05953 10.538C5.05953 10.068 5.28453 9.70797 5.73453 9.45797C6.19453 9.20797 6.79953 9.10797 7.54953 9.15797C9.13953 9.27797 10.0095 9.95797 10.1595 11.198L14.3295 10.448C14.1195 8.97797 13.3995 7.81297 12.1695 6.95297C10.9395 6.08297 9.36953 5.64797 7.45953 5.64797C5.49953 5.64797 3.93453 6.10797 2.76453 7.02797C1.59453 7.94797 1.00953 9.18797 1.00953 10.748C1.00953 11.988 1.41453 12.968 2.22453 13.688C3.03453 14.398 4.42953 15.008 6.40953 15.518C7.57953 15.828 8.43953 16.078 8.98953 16.268C9.54953 16.458 9.90953 16.653 10.0695 16.853C10.2295 17.043 10.3095 17.298 10.3095 17.618C10.3095 18.128 10.1095 18.528 9.70953 18.818C9.30953 19.098 8.73953 19.238 7.99953 19.238C7.09953 19.238 6.35453 19.023 5.76453 18.593C5.18453 18.163 4.80953 17.568 4.63953 16.808L0.469531 17.438C0.739531 19.128 1.49953 20.438 2.74953 21.368C4.00953 22.288 5.65953 22.748 7.69953 22.748ZM17.7458 22.298H21.8858V14.078C21.8858 13.068 21.9958 12.258 22.2158 11.648C22.4458 11.038 22.7358 10.578 23.0858 10.268C23.4358 9.94797 23.8108 9.73297 24.2108 9.62297C24.6108 9.51297 24.9858 9.45797 25.3358 9.45797C26.2058 9.45797 26.8758 9.65297 27.3458 10.043C27.8258 10.433 28.1708 10.918 28.3808 11.498C28.5908 12.078 28.7158 12.658 28.7558 13.238C28.7958 13.808 28.8158 14.278 28.8158 14.648V22.298H32.9558V13.208C32.9558 12.938 32.9358 12.508 32.8958 11.918C32.8558 11.328 32.7408 10.678 32.5508 9.96797C32.3608 9.24797 32.0408 8.55797 31.5908 7.89797C31.1508 7.23797 30.5308 6.69297 29.7308 6.26297C28.9308 5.83297 27.8958 5.61797 26.6258 5.61797C25.4558 5.61797 24.4358 5.81297 23.5658 6.20297C22.6958 6.59297 21.9658 7.11297 21.3758 7.76297V0.697973H17.7458V22.298ZM37.148 3.84797H41.228V0.247973H37.148V3.84797ZM37.148 22.298H41.228V6.09797H37.148V22.298ZM45.695 29.498H49.805V21.713C50.335 22.043 50.92 22.298 51.56 22.478C52.21 22.658 52.915 22.748 53.675 22.748C55.165 22.748 56.47 22.373 57.59 21.623C58.71 20.873 59.58 19.853 60.2 18.563C60.83 17.273 61.145 15.818 61.145 14.198C61.145 12.548 60.825 11.083 60.185 9.80297C59.555 8.51297 58.665 7.49797 57.515 6.75797C56.365 6.01797 55.015 5.64797 53.465 5.64797C52.625 5.64797 51.855 5.76797 51.155 6.00797C50.465 6.23797 49.845 6.56797 49.295 6.99797V6.09797H45.695V29.498ZM53.015 19.118C51.655 19.118 50.695 18.668 50.135 17.768C49.575 16.858 49.295 15.668 49.295 14.198C49.295 12.728 49.57 11.543 50.12 10.643C50.68 9.73297 51.595 9.27797 52.865 9.27797C53.775 9.27797 54.52 9.50297 55.1 9.95297C55.69 10.393 56.125 10.988 56.405 11.738C56.685 12.478 56.825 13.298 56.825 14.198C56.825 15.108 56.69 15.938 56.42 16.688C56.15 17.428 55.735 18.018 55.175 18.458C54.615 18.898 53.895 19.118 53.015 19.118ZM64.7457 22.298H68.8257V0.247973H64.7457V22.298ZM77.8227 22.748C79.0727 22.748 80.1227 22.558 80.9727 22.178C81.8327 21.788 82.6227 21.168 83.3427 20.318V22.298H86.9127V12.398C86.9127 11.658 86.8827 10.988 86.8227 10.388C86.7627 9.78797 86.5727 9.18797 86.2527 8.58797C85.6827 7.50797 84.8427 6.74797 83.7327 6.30797C82.6227 5.86797 81.3527 5.64797 79.9227 5.64797C77.9727 5.64797 76.4327 6.06797 75.3027 6.90797C74.1727 7.74797 73.4027 8.83797 72.9927 10.178L76.6827 11.348C76.9427 10.608 77.3977 10.093 78.0477 9.80297C78.6977 9.51297 79.3227 9.36797 79.9227 9.36797C80.8827 9.36797 81.5977 9.54797 82.0677 9.90797C82.5377 10.258 82.8127 10.813 82.8927 11.573C81.3727 11.793 80.0327 12.008 78.8727 12.218C77.7127 12.418 76.7427 12.658 75.9627 12.938C74.6627 13.418 73.7477 14.073 73.2177 14.903C72.6877 15.723 72.4227 16.698 72.4227 17.828C72.4227 18.728 72.6277 19.553 73.0377 20.303C73.4577 21.043 74.0677 21.638 74.8677 22.088C75.6777 22.528 76.6627 22.748 77.8227 22.748ZM78.6927 19.538C77.9927 19.538 77.4377 19.383 77.0277 19.073C76.6177 18.753 76.4127 18.318 76.4127 17.768C76.4127 17.358 76.5427 17.008 76.8027 16.718C77.0627 16.418 77.4927 16.148 78.0927 15.908C78.5527 15.738 79.1177 15.583 79.7877 15.443C80.4677 15.293 81.4927 15.103 82.8627 14.873C82.8527 15.263 82.8227 15.693 82.7727 16.163C82.7227 16.623 82.6127 17.028 82.4427 17.378C82.3327 17.608 82.1227 17.893 81.8127 18.233C81.5127 18.573 81.1027 18.878 80.5827 19.148C80.0727 19.408 79.4427 19.538 78.6927 19.538ZM97.9529 22.748C99.8329 22.748 101.413 22.283 102.693 21.353C103.973 20.423 104.843 19.098 105.303 17.378L101.133 16.508C100.893 17.288 100.533 17.888 100.053 18.308C99.5729 18.728 98.8729 18.938 97.9529 18.938C96.7229 18.938 95.7929 18.503 95.1629 17.633C94.5429 16.753 94.2329 15.608 94.2329 14.198C94.2329 12.848 94.5279 11.723 95.1179 10.823C95.7179 9.91297 96.6629 9.45797 97.9529 9.45797C98.7029 9.45797 99.3729 9.69297 99.9629 10.163C100.563 10.633 100.983 11.288 101.223 12.128L105.303 11.048C104.943 9.37797 104.113 8.06297 102.813 7.10297C101.523 6.13297 99.9229 5.64797 98.0129 5.64797C96.3629 5.64797 94.9329 6.01797 93.7229 6.75797C92.5129 7.49797 91.5729 8.51297 90.9029 9.80297C90.2429 11.093 89.9129 12.558 89.9129 14.198C89.9129 15.818 90.2329 17.273 90.8729 18.563C91.5129 19.853 92.4329 20.873 93.6329 21.623C94.8329 22.373 96.2729 22.748 97.9529 22.748ZM115.394 22.748C116.954 22.748 118.389 22.338 119.699 21.518C121.019 20.698 121.984 19.548 122.594 18.068L118.514 16.898C117.894 18.258 116.774 18.938 115.154 18.938C114.044 18.938 113.169 18.628 112.529 18.008C111.899 17.388 111.509 16.498 111.359 15.338H122.729C122.899 13.378 122.699 11.673 122.129 10.223C121.559 8.77297 120.679 7.64797 119.489 6.84797C118.299 6.04797 116.854 5.64797 115.154 5.64797C113.554 5.64797 112.139 6.01297 110.909 6.74297C109.679 7.46297 108.714 8.47797 108.014 9.78797C107.314 11.098 106.964 12.638 106.964 14.408C106.964 16.028 107.319 17.468 108.029 18.728C108.749 19.978 109.739 20.963 110.999 21.683C112.269 22.393 113.734 22.748 115.394 22.748ZM115.334 9.18797C116.314 9.18797 117.064 9.43297 117.584 9.92297C118.114 10.413 118.454 11.208 118.604 12.308H111.464C111.894 10.228 113.184 9.18797 115.334 9.18797Z" fill="black"/>
</svg>
